<svg width="66" height="66" viewBox="0 0 66 66" fill="none" xmlns="http://www.w3.org/2000/svg">
<path d="M29.9027 7.1189C23.7834 11.1342 17.7825 12.4192 14.3863 12.8284C12.7621 13.024 11.5508 14.3945 11.5508 16.0172V30.727C11.5508 40.1617 17.2933 48.6293 26.0874 52.1623L30.4017 53.8955C30.7937 54.0531 31.2096 54.1306 31.6255 54.1282H34.3761L37.1635 52.1C45.9577 48.4682 51.7001 39.9359 51.7001 30.5012V15.7913C51.7001 14.1686 50.4888 12.8118 48.8647 12.6343C45.4685 12.2634 40.5537 10.5485 34.4342 6.60208C34.4342 6.60208 32.2266 6.59795 31.6254 6.60134C31.0241 6.60472 30.4232 6.77736 29.9027 7.1189Z" fill="url(#paint0_linear_3134_698)"/>
<path d="M32.6527 7.11882C26.5334 11.1341 20.5325 12.4191 17.1363 12.8283C15.5121 13.0239 14.3008 14.3944 14.3008 16.0171V30.7269C14.3008 40.1616 20.0433 48.6293 28.8374 52.1622L33.1517 53.8954C33.9358 54.2105 34.8152 54.2055 35.5993 53.8817L39.9135 52.1C48.7077 48.4681 54.4501 39.9358 54.4501 30.5011V15.7912C54.4501 14.1685 53.2388 12.8117 51.6147 12.6343C48.2185 12.2633 42.2176 11.0458 36.0982 7.09942C35.0573 6.42814 33.6936 6.43581 32.6527 7.11882Z" fill="url(#paint1_linear_3134_698)"/>
<path d="M32.8971 10.4113C27.6445 13.8578 22.4935 14.9609 19.5784 15.3121C18.1843 15.48 17.1445 16.6564 17.1445 18.0493V30.6756C17.1445 38.7739 22.0737 46.0423 29.6222 49.0748L33.3254 50.5625C33.9984 50.8328 34.7532 50.8286 35.4263 50.5507L39.1295 49.0213C46.6781 45.9039 51.6072 38.5801 51.6072 30.4818V17.8554C51.6072 16.4625 50.5675 15.2979 49.1733 15.1455C46.2582 14.8271 41.1073 13.7821 35.8547 10.3947C34.9612 9.81851 33.7905 9.82503 32.8971 10.4113Z" fill="url(#paint2_linear_3134_698)"/>
<path d="M34.3763 42.2728C40.5298 42.2728 45.5182 36.9411 45.5182 30.3641C45.5182 23.7871 40.5298 18.4554 34.3763 18.4554C28.2228 18.4554 23.2344 23.7871 23.2344 30.3641C23.2344 36.9411 28.2228 42.2728 34.3763 42.2728Z" fill="url(#paint3_linear_3134_698)"/>
<path d="M40.492 28.3086H36.8527C36.6284 28.3086 36.4465 28.1281 36.4465 27.9054V24.2935C36.4465 24.0708 36.2647 23.8904 36.0403 23.8904H32.7094C32.4851 23.8904 32.3032 24.0708 32.3032 24.2935V27.9054C32.3032 28.1281 32.1214 28.3086 31.897 28.3086H28.2577C28.0334 28.3086 27.8516 28.4891 27.8516 28.7117V32.0176C27.8516 32.2403 28.0334 32.4208 28.2577 32.4208H31.897C32.1214 32.4208 32.3032 32.6012 32.3032 32.8239V36.4359C32.3032 36.6585 32.4851 36.839 32.7094 36.839H36.0403C36.2647 36.839 36.4465 36.6585 36.4465 36.4359V32.8239C36.4465 32.6012 36.6284 32.4208 36.8527 32.4208H40.492C40.7164 32.4208 40.8982 32.2403 40.8982 32.0176V28.7117C40.8982 28.4891 40.7164 28.3086 40.492 28.3086Z" fill="url(#paint4_linear_3134_698)"/>
<path opacity="0.2" d="M32.446 59.3999C43.3918 59.3999 52.2651 58.3786 52.2651 57.1187C52.2651 55.8588 43.3918 54.8375 32.446 54.8375C21.5002 54.8375 12.627 55.8588 12.627 57.1187C12.627 58.3786 21.5002 59.3999 32.446 59.3999Z" fill="url(#paint5_radial_3134_698)"/>
<defs>
<linearGradient id="paint0_linear_3134_698" x1="31.6255" y1="54.517" x2="31.6255" y2="24.6006" gradientUnits="userSpaceOnUse">
<stop stop-color="#606060"/>
<stop offset="0.2424" stop-color="#666666"/>
<stop offset="0.5713" stop-color="#777777"/>
<stop offset="0.9483" stop-color="#939393"/>
<stop offset="0.997" stop-color="#989898"/>
</linearGradient>
<linearGradient id="paint1_linear_3134_698" x1="34.3755" y1="71.4762" x2="54.2373" y2="-3.62845" gradientUnits="userSpaceOnUse">
<stop offset="0.003" stop-color="#939393"/>
<stop offset="0.1044" stop-color="#A3A3A3"/>
<stop offset="0.3756" stop-color="#CBCBCB"/>
<stop offset="0.6245" stop-color="#E7E7E7"/>
<stop offset="0.8407" stop-color="#F8F8F8"/>
<stop offset="1" stop-color="white"/>
</linearGradient>
<linearGradient id="paint2_linear_3134_698" x1="-60.4309" y1="74.126" x2="33.7672" y2="-7.50826" gradientUnits="userSpaceOnUse">
<stop offset="0.003" stop-color="#939393"/>
<stop offset="0.1044" stop-color="#A3A3A3"/>
<stop offset="0.3756" stop-color="#CBCBCB"/>
<stop offset="0.6245" stop-color="#E7E7E7"/>
<stop offset="0.8407" stop-color="#F8F8F8"/>
<stop offset="1" stop-color="white"/>
</linearGradient>
<linearGradient id="paint3_linear_3134_698" x1="34.3763" y1="15.6801" x2="34.3763" y2="44.4763" gradientUnits="userSpaceOnUse">
<stop stop-color="white" stop-opacity="0.7"/>
<stop offset="0.2574" stop-color="white" stop-opacity="0.6759"/>
<stop offset="0.6065" stop-color="white" stop-opacity="0.6081"/>
<stop offset="0.997" stop-color="white" stop-opacity="0.5"/>
</linearGradient>
<linearGradient id="paint4_linear_3134_698" x1="34.3748" y1="37.4218" x2="34.3748" y2="23.2086" gradientUnits="userSpaceOnUse">
<stop stop-color="#7C47E1"/>
<stop offset="0.9994" stop-color="#D0BDF4"/>
</linearGradient>
<radialGradient id="paint5_radial_3134_698" cx="0" cy="0" r="1" gradientUnits="userSpaceOnUse" gradientTransform="translate(32.4379 57.1205) scale(19.5931 2.30794)">
<stop stop-opacity="0.7"/>
<stop offset="1" stop-color="#414042" stop-opacity="0"/>
</radialGradient>
</defs>
</svg>
