<svg width="28" height="28" viewBox="0 0 28 28" fill="none" xmlns="http://www.w3.org/2000/svg">
<path d="M14 5.25V7M14 7V8.75M14 7H15.75M14 7H12.25" stroke="#474649" stroke-width="1.75" stroke-linecap="round"/>
<path d="M10.0223 3.02166C9.33398 3.71 9.33398 4.80666 9.33398 7C9.33398 9.19333 9.33398 10.3017 10.0223 10.9783C10.7107 11.6667 11.8073 11.6667 14.0007 11.6667C16.194 11.6667 17.3023 11.6667 17.979 10.9783C18.6673 10.29 18.6673 9.19333 18.6673 7C18.6673 4.80666 18.6673 3.69833 17.979 3.02166C17.2907 2.33333 16.194 2.33333 14.0007 2.33333C11.8073 2.33333 10.699 2.33333 10.0223 3.02166Z" stroke="#474649" stroke-width="1.75" stroke-linecap="round" stroke-linejoin="round"/>
<path d="M18.666 5.83333H20.9993C22.288 5.83333 23.3327 6.878 23.3327 8.16666V25.6667" stroke="#474649" stroke-width="1.75" stroke-linecap="round" stroke-linejoin="round"/>
<path d="M4.66602 25.6667V8.16667C4.66602 6.878 5.71068 5.83333 6.99935 5.83333H9.33268" stroke="#141414" stroke-width="1.75" stroke-linecap="round" stroke-linejoin="round"/>
<path d="M3.5 25.6667H24.5" stroke="#141414" stroke-width="1.75" stroke-linecap="round" stroke-linejoin="round"/>
<path d="M11.084 25.6667V22.75C11.084 21.665 11.084 21.1167 11.3173 20.7083C11.469 20.44 11.6907 20.2183 11.959 20.0667C12.3673 19.8333 12.9157 19.8333 14.0007 19.8333C15.0857 19.8333 15.634 19.8333 16.0423 20.0667C16.3107 20.2183 16.5323 20.44 16.684 20.7083C16.9173 21.1167 16.9173 21.665 16.9173 22.75V25.6667" stroke="#141414" stroke-width="1.75" stroke-linecap="round"/>
<path d="M9.31003 16.3333H9.19336" stroke="#141414" stroke-width="1.75" stroke-linecap="round" stroke-linejoin="round"/>
<path d="M14.0932 16.3333H13.9766" stroke="#141414" stroke-width="1.75" stroke-linecap="round" stroke-linejoin="round"/>
<path d="M18.8764 16.3333H18.7598" stroke="#141414" stroke-width="1.75" stroke-linecap="round" stroke-linejoin="round"/>
</svg>
